<svg width="700" height="260" viewBox="0 0 700 260" fill="none" xmlns="http://www.w3.org/2000/svg">
  <rect width="700" height="260" fill="#F4F4F6"/>
  <g transform="translate(120,20)">
    <path d="M34 142L118 0L430 170H0L34 142Z" fill="#112F62"/>
    <rect x="72" y="34" width="42" height="30" transform="rotate(30 72 34)" fill="#F4F4F6"/>
    <rect x="55" y="66" width="42" height="30" transform="rotate(30 55 66)" fill="#F4F4F6"/>
    <rect x="38" y="98" width="42" height="30" transform="rotate(30 38 98)" fill="#F4F4F6"/>
    <rect x="341" y="128" width="42" height="30" transform="rotate(30 341 128)" fill="#F4F4F6"/>
    <rect x="324" y="160" width="42" height="30" transform="rotate(30 324 160)" fill="#F4F4F6"/>
    <circle cx="210" cy="132" r="62" fill="#F4F4F6"/>
    <circle cx="210" cy="132" r="34" fill="#112F62"/>
  </g>
  <text x="350" y="210" text-anchor="middle" font-family="Arial, Helvetica, sans-serif" font-size="76" font-weight="700" fill="#06153A">MOVIES</text>
  <text x="350" y="245" text-anchor="middle" font-family="Arial, Helvetica, sans-serif" font-size="26" letter-spacing="8" fill="#06153A">ENTERTAINMENT</text>
</svg>
